<mxfile host="app.diagrams.net" agent="Mozilla/5.0 (Windows NT 10.0; Win64; x64) AppleWebKit/537.36 (KHTML, like Gecko) Chrome/131.0.0.0 Safari/537.36" version="24.7.14">
  <diagram name="Page-1" id="8g581iMjH4lPRv5JMo9-">
    <mxGraphModel>
      <root>
        <mxCell id="0" />
        <mxCell id="1" parent="0" />
        <mxCell id="2" value="EKS Cluster" style="whiteSpace=wrap;strokeWidth=2;verticalAlign=top;" vertex="1" parent="1">
          <mxGeometry x="8" y="8" width="1009" height="489" as="geometry" />
        </mxCell>
        <mxCell id="3" value="StatefulSet" style="whiteSpace=wrap;strokeWidth=2;verticalAlign=top;" vertex="1" parent="2">
          <mxGeometry x="43" y="193" width="435" height="118" as="geometry" />
        </mxCell>
        <mxCell id="4" value="StatefulSet" style="whiteSpace=wrap;strokeWidth=2;" vertex="1" parent="3">
          <mxGeometry x="58" y="43" width="140" height="48" as="geometry" />
        </mxCell>
        <mxCell id="5" value="Service 5" style="rounded=1;arcSize=40;strokeWidth=2" vertex="1" parent="3">
          <mxGeometry x="298" y="43" width="95" height="48" as="geometry" />
        </mxCell>
        <mxCell id="6" value="" style="curved=1;startArrow=none;endArrow=block;exitX=1;exitY=0.5;entryX=0;entryY=0.5;" edge="1" parent="3" source="4" target="5">
          <mxGeometry relative="1" as="geometry">
            <Array as="points" />
          </mxGeometry>
        </mxCell>
        <mxCell id="7" value="Deployments" style="whiteSpace=wrap;strokeWidth=2;verticalAlign=top;" vertex="1" parent="2">
          <mxGeometry x="528" y="46" width="454" height="414" as="geometry" />
        </mxCell>
        <mxCell id="8" value="Deployment 1" style="whiteSpace=wrap;strokeWidth=2;" vertex="1" parent="7">
          <mxGeometry x="58" y="92" width="159" height="48" as="geometry" />
        </mxCell>
        <mxCell id="9" value="Service 1" style="rounded=1;arcSize=40;strokeWidth=2" vertex="1" parent="7">
          <mxGeometry x="317" y="43" width="95" height="48" as="geometry" />
        </mxCell>
        <mxCell id="10" value="Service 2" style="rounded=1;arcSize=40;strokeWidth=2" vertex="1" parent="7">
          <mxGeometry x="317" y="141" width="95" height="48" as="geometry" />
        </mxCell>
        <mxCell id="11" value="Deployment 2" style="whiteSpace=wrap;strokeWidth=2;" vertex="1" parent="7">
          <mxGeometry x="58" y="240" width="159" height="48" as="geometry" />
        </mxCell>
        <mxCell id="12" value="Service 3" style="rounded=1;arcSize=40;strokeWidth=2" vertex="1" parent="7">
          <mxGeometry x="317" y="240" width="95" height="48" as="geometry" />
        </mxCell>
        <mxCell id="13" value="Deployment 3" style="whiteSpace=wrap;strokeWidth=2;" vertex="1" parent="7">
          <mxGeometry x="58" y="338" width="159" height="48" as="geometry" />
        </mxCell>
        <mxCell id="14" value="Service 4" style="rounded=1;arcSize=40;strokeWidth=2" vertex="1" parent="7">
          <mxGeometry x="317" y="338" width="95" height="48" as="geometry" />
        </mxCell>
        <mxCell id="15" value="" style="curved=1;startArrow=none;endArrow=block;exitX=0.9;exitY=0;entryX=0;entryY=0.5;" edge="1" parent="7" source="8" target="9">
          <mxGeometry relative="1" as="geometry">
            <Array as="points">
              <mxPoint x="267" y="67" />
            </Array>
          </mxGeometry>
        </mxCell>
        <mxCell id="16" value="" style="curved=1;startArrow=none;endArrow=block;exitX=0.9;exitY=1.01;entryX=0;entryY=0.51;" edge="1" parent="7" source="8" target="10">
          <mxGeometry relative="1" as="geometry">
            <Array as="points">
              <mxPoint x="267" y="166" />
            </Array>
          </mxGeometry>
        </mxCell>
        <mxCell id="17" value="" style="curved=1;startArrow=none;endArrow=block;exitX=1;exitY=0.5;entryX=0;entryY=0.5;" edge="1" parent="7" source="11" target="12">
          <mxGeometry relative="1" as="geometry">
            <Array as="points" />
          </mxGeometry>
        </mxCell>
        <mxCell id="18" value="" style="curved=1;startArrow=none;endArrow=block;exitX=1;exitY=0.51;entryX=0;entryY=0.51;" edge="1" parent="7" source="13" target="14">
          <mxGeometry relative="1" as="geometry">
            <Array as="points" />
          </mxGeometry>
        </mxCell>
      </root>
    </mxGraphModel>
  </diagram>
</mxfile>
